[Header]
FileType HTR
DataType HTRS
FileVersion 1
NumSegments 36
NumFrames 4
DataFrameRate 120
EulerRotationOrder ZYX
CalibrationUnits mm
RotationUnits Degrees
GlobalAxisofGravity Y
BoneLengthAxis Y
ScaleFactor 1.0
[SegmentNames&Hierarchy]
Hips	GLOBAL
Spine	Hips
Spine1	Spine
Spine2	Spine1
Spine3	Spine2
Neck	Spine3
Head	Neck
HeadEnd	Head
RightShoulder	Spine3
RightArm	RightShoulder
RightForeArm	RightArm
RightForeArmRoll	RightForeArm
RightHand	RightForeArmRoll
RightHandEnd	RightHand
R_FingersEnd	RightHandEnd
RightHandThumb1	RightHand
RightHandThumb2	RightHandThumb1
LeftShoulder	Spine3
LeftArm	LeftShoulder
LeftForeArm	LeftArm
LeftForeArmRoll	LeftForeArm
LeftHand	LeftForeArmRoll
LeftHandEnd	LeftHand
L_FingersEnd	LeftHandEnd
LeftHandThumb1	LeftHand
LeftHandThumb2	LeftHandThumb1
RightUpLeg	Hips
RightLeg	RightUpLeg
RightFoot	RightLeg
RightToeBase	RightFoot
RightToeBaseEnd	RightToeBase
LeftUpLeg	Hips
LeftLeg	LeftUpLeg
LeftFoot	LeftLeg
LeftToeBase	LeftFoot
LeftToeBaseEnd	LeftToeBase
[BasePosition]
Hips	0	0	0	0	0	0	1
Spine	0	0	0	-10	-0	0	1
Spine1	0	0	0	5	0	0	1
Spine2	0	0	0	5	0	0	1
Spine3	0	0	0	0	0	0	1
Neck	0	0	0	10	0	0	1
Head	0	0	0	-10	-0	0	1
HeadEnd	0	0	0	0	0	0	1
RightShoulder	0	0	0	-180	-0	-180	1
RightArm	0	0	0	0	0	0	1
RightForeArm	0	0	0	0	0	0	1
RightForeArmRoll	0	0	0	0	0	0	1
RightHand	0	0	0	0	0	0	1
RightHandEnd	0	0	0	-90	-0	0	1
R_FingersEnd	0	0	0	0	0	0	1
RightHandThumb1	0	0	0	170	-0	-15	1
RightHandThumb2	0	0	0	0	0	0	1
LeftShoulder	0	0	0	0	0	0	1
LeftArm	0	0	0	0	0	0	1
LeftForeArm	0	0	0	0	0	0	1
LeftForeArmRoll	0	0	0	0	0	0	1
LeftHand	0	0	0	0	0	0	1
LeftHandEnd	0	0	0	90	0	0	1
L_FingersEnd	0	0	0	0	0	0	1
LeftHandThumb1	0	0	0	170	-0	-15	1
LeftHandThumb2	0	0	0	0	0	0	1
RightUpLeg	0	0	0	-0	90	0	1
RightLeg	0	0	0	0	0	0	1
RightFoot	0	0	0	0	-0	-70	1
RightToeBase	0	0	0	0	-0	-20	1
RightToeBaseEnd	0	0	0	0	0	0	1
LeftUpLeg	0	0	0	-0	90	0	1
LeftLeg	0	0	0	0	0	0	1
LeftFoot	0	0	0	0	-0	-70	1
LeftToeBase	0	0	0	0	-0	-20	1
LeftToeBaseEnd	0	0	0	0	0	0	1
[Hips]
8	-5.824172974	970.6344604	-22.10791397	-89.91517639	-0.2446408123	0.3374831676	1.0
9	-5.728864193	970.6503296	-21.51784706	-89.89089203	-0.2504561245	0.3413088322	1.0
10	-5.574617386	970.6606445	-20.74698639	-89.87277222	-0.2578396201	0.3493545353	1.0
11	-5.475790501	970.6637573	-20.29555511	-89.85757446	-0.2636279464	0.3561598659	1.0
[Spine]
8	0	44.87670517	67.31505585	-0.2838203311	0.3491363823	0.07320733368	1.0
9	0	44.87670517	67.31505585	-0.2852947712	0.3540862501	0.07513444126	1.0
10	0	44.87670517	67.31505585	-0.2851348817	0.3558320999	0.07627108693	1.0
11	0	44.87670517	67.31505585	-0.2804024816	0.3514587879	0.07613000274	1.0
[Spine1]
8	0	0	89.75341034	-0.722458303	0.05352509767	0.005233539268	1.0
9	0	0	89.75341034	-0.7262736559	0.04868770763	0.005245629698	1.0
10	0	0	89.75341034	-0.7249755859	0.04453157634	0.005361982621	1.0
11	0	0	89.75341034	-0.7114303112	0.039688766	0.005499796011	1.0
[Spine2]
8	0	0	89.75341034	1.742463231	0.6165122986	0.4100188613	1.0
9	0	0	89.75341034	1.745273352	0.6322186589	0.4329587519	1.0
10	0	0	89.75341034	1.739214897	0.6423190832	0.4502241015	1.0
11	0	0	89.75341034	1.705305934	0.6423177123	0.4606401622	1.0
[Spine3]
8	0	0	89.75341034	0.1814650595	-0.4102444053	-0.08491374552	1.0
9	0	0	89.75341034	0.1804064661	-0.4160385132	-0.0846516639	1.0
10	0	0	89.75341034	0.1790559292	-0.4163740277	-0.08342587203	1.0
11	0	0	89.75341034	0.1750915796	-0.4084290266	-0.08046385646	1.0
[Neck]
8	0	-33.65752792	235.6027069	-1.231775761	-0.1024434566	-0.1916012168	1.0
9	0	-33.65752792	235.6027069	-1.251441479	-0.1101902127	-0.1899882406	1.0
10	0	-33.65752792	235.6027069	-1.257777333	-0.1048621312	-0.1858219504	1.0
11	0	-33.65752792	235.6027069	-1.241437674	-0.09047327936	-0.1773983091	1.0
[Head]
8	0	0	123.4109421	-1.022766948	-0.1864193976	-1.176404119	1.0
9	0	0	123.4109421	-1.025092959	-0.1784163415	-1.208248615	1.0
10	0	0	123.4109421	-1.023094535	-0.1761171818	-1.221645713	1.0
11	0	0	123.4109421	-1.005364418	-0.1743801385	-1.210897088	1.0
[HeadEnd]
8	0	0	145.2883301	0	0	0	1.0
9	0	0	145.2883301	0	0	0	1.0
10	0	0	145.2883301	0	0	0	1.0
11	0	0	145.2883301	0	0	0	1.0
[RightShoulder]
8	-30.74827576	-51.24713135	166.0407104	-4.83390522	-6.074840546	0.9165859818	1.0
9	-30.74827576	-51.24713135	166.0407104	-4.888155937	-6.150607586	0.9352450371	1.0
10	-30.74827576	-51.24713135	166.0407104	-4.893567562	-6.164936066	0.9380010366	1.0
11	-30.74827576	-51.24713135	166.0407104	-4.810182095	-6.068344593	0.9203624725	1.0
[RightArm]
8	152.7164459	0	0	-26.95729828	-71.44281006	5.656515598	1.0
9	152.7164459	0	0	-28.26306343	-72.29516602	6.769046307	1.0
10	152.7164459	0	0	-28.41506958	-72.53045654	6.901343822	1.0
11	152.7164459	0	0	-27.58989716	-71.52632141	6.42481184	1.0
[RightForeArm]
8	297.8946228	0	0	5.307540873e-017	7.098916956e-018	-32.21515656	1.0
9	297.8946228	0	0	7.397436513e-017	2.16569417e-017	-32.6361351	1.0
10	297.8946228	0	0	7.928831897e-017	2.240598849e-017	-32.73143768	1.0
11	297.8946228	0	0	5.506717693e-017	1.540457131e-017	-32.24032211	1.0
[RightForeArmRoll]
8	122.9768982	0	0	4.885964394	0	0	1.0
9	122.9768982	0	0	4.983462334	0	0	1.0
10	122.9768982	0	0	5.005057812	0	0	1.0
11	122.9768982	0	0	4.923597813	0	0	1.0
[RightHand]
8	127.1009369	0	0	-0.003949490841	8.196310043	-3.249448776	1.0
9	127.1009369	0	0	-0.01109820697	8.310498238	-3.315574646	1.0
10	127.1009369	0	0	-0.01140074618	8.353139877	-3.334895372	1.0
11	127.1009369	0	0	-0.007849022746	8.254549026	-3.288176298	1.0
[RightHandEnd]
8	72.05677795	0	0	0	0	0	1.0
9	72.05677795	0	0	0	0	0	1.0
10	72.05677795	0	0	0	0	0	1.0
11	72.05677795	0	0	0	0	0	1.0
[R_FingersEnd]
8	72.05677795	0	0	0	0	0	1.0
9	72.05677795	0	0	0	0	0	1.0
10	72.05677795	0	0	0	0	0	1.0
11	72.05677795	0	0	0	0	0	1.0
[RightHandThumb1]
8	28.82271004	-48.03784943	19.2151413	0	0	0	1.0
9	28.82271004	-48.03784943	19.2151413	0	0	0	1.0
10	28.82271004	-48.03784943	19.2151413	0	0	0	1.0
11	28.82271004	-48.03784943	19.2151413	0	0	0	1.0
[RightHandThumb2]
8	72.05677795	0	0	0	0	0	1.0
9	72.05677795	0	0	0	0	0	1.0
10	72.05677795	0	0	0	0	0	1.0
11	72.05677795	0	0	0	0	0	1.0
[LeftShoulder]
8	30.74827576	-51.24713135	166.0407104	5.859026909	5.994683743	3.124248743	1.0
9	30.74827576	-51.24713135	166.0407104	5.951919079	6.075020313	3.176528215	1.0
10	30.74827576	-51.24713135	166.0407104	5.955954552	6.108010292	3.19128871	1.0
11	30.74827576	-51.24713135	166.0407104	5.835595131	6.040669441	3.146341801	1.0
[LeftArm]
8	152.7164459	0	0	0.6273428202	69.77908325	-40.28956604	1.0
9	152.7164459	0	0	-2.162605047	69.99898529	-44.37362289	1.0
10	152.7164459	0	0	-1.893707037	70.38830566	-44.10836029	1.0
11	152.7164459	0	0	0.1033946276	70.01364899	-40.86865616	1.0
[LeftForeArm]
8	297.8946228	0	0	2.754350967e-017	-6.160973551e-018	-19.91825867	1.0
9	297.8946228	0	0	3.96376777e-017	-5.053766659e-018	-20.17613983	1.0
10	297.8946228	0	0	4.227649304e-017	-5.638019628e-018	-20.23077965	1.0
11	297.8946228	0	0	2.932125646e-017	-3.958705259e-018	-19.92140007	1.0
[LeftForeArmRoll]
8	122.9768982	0	0	-5.12515974	0	0	1.0
9	122.9768982	0	0	-5.086520672	0	0	1.0
10	122.9768982	0	0	-5.04393816	0	0	1.0
11	122.9768982	0	0	-4.929341316	0	0	1.0
[LeftHand]
8	127.1009369	0	0	-0.004485170357	-21.97700119	0.7301427126	1.0
9	127.1009369	0	0	-0.007933873683	-22.23052216	0.8082259297	1.0
10	127.1009369	0	0	-0.007717821281	-22.29665565	0.8482458591	1.0
11	127.1009369	0	0	-0.005373965949	-21.98219681	0.861389637	1.0
[LeftHandEnd]
8	72.05677795	0	0	0	0	0	1.0
9	72.05677795	0	0	0	0	0	1.0
10	72.05677795	0	0	0	0	0	1.0
11	72.05677795	0	0	0	0	0	1.0
[L_FingersEnd]
8	72.05677795	0	0	0	0	0	1.0
9	72.05677795	0	0	0	0	0	1.0
10	72.05677795	0	0	0	0	0	1.0
11	72.05677795	0	0	0	0	0	1.0
[LeftHandThumb1]
8	28.82271004	-48.03784943	-19.2151413	0	0	0	1.0
9	28.82271004	-48.03784943	-19.2151413	0	0	0	1.0
10	28.82271004	-48.03784943	-19.2151413	0	0	0	1.0
11	28.82271004	-48.03784943	-19.2151413	0	0	0	1.0
[LeftHandThumb2]
8	72.05677795	0	0	0	0	0	1.0
9	72.05677795	0	0	0	0	0	1.0
10	72.05677795	0	0	0	0	0	1.0
11	72.05677795	0	0	0	0	0	1.0
[RightUpLeg]
8	-91.21989441	0	-26.64850616	10.42899132	4.766366005	0.005838765763	1.0
9	-91.21989441	0	-26.64850616	10.55958939	4.828707218	0.01892227307	1.0
10	-91.21989441	0	-26.64850616	10.59487534	4.856863499	0.003426206298	1.0
11	-91.21989441	0	-26.64850616	10.44639778	4.807348251	-0.02951771952	1.0
[RightLeg]
8	402.8824463	0	0	0	0	15.5233469	1.0
9	402.8824463	0	0	0	0	15.74608517	1.0
10	402.8824463	0	0	0	0	15.80648708	1.0
11	402.8824463	0	0	0	0	15.58260918	1.0
[RightFoot]
8	435.9781189	0	0	4.446601868	-2.805388927	-15.65902138	1.0
9	435.9781189	0	0	4.544459343	-2.816606283	-15.87734509	1.0
10	435.9781189	0	0	4.56430912	-2.842023373	-15.93357277	1.0
11	435.9781189	0	0	4.485328674	-2.841732979	-15.70353127	1.0
[RightToeBase]
8	183.1846619	0	0	0	0	0.9751870036	1.0
9	183.1846619	0	0	0	0	0.9910476208	1.0
10	183.1846619	0	0	0	0	0.9940521717	1.0
11	183.1846619	0	0	0	0	0.9776512384	1.0
[RightToeBaseEnd]
8	73.79586792	0	0	0	0	0	1.0
9	73.79586792	0	0	0	0	0	1.0
10	73.79586792	0	0	0	0	0	1.0
11	73.79586792	0	0	0	0	0	1.0
[LeftUpLeg]
8	91.21989441	0	-26.64850616	1.692516208	-4.968667507	1.785645008	1.0
9	91.21989441	0	-26.64850616	1.716571331	-5.038322926	1.781825542	1.0
10	91.21989441	0	-26.64850616	1.733920097	-5.042550087	1.781125784	1.0
11	91.21989441	0	-26.64850616	1.72743392	-4.94688797	1.759265423	1.0
[LeftLeg]
8	402.8824463	0	0	0	0	10.87401295	1.0
9	402.8824463	0	0	0	0	11.02468967	1.0
10	402.8824463	0	0	0	0	11.05272388	1.0
11	402.8824463	0	0	0	0	10.87530327	1.0
[LeftFoot]
8	435.9781189	0	0	-8.33938694	-1.59642458	-13.01363182	1.0
9	435.9781189	0	0	-8.436463356	-1.646610737	-13.18485069	1.0
10	435.9781189	0	0	-8.467125893	-1.671288371	-13.2239542	1.0
11	435.9781189	0	0	-8.356552124	-1.663495421	-13.02590179	1.0
[LeftToeBase]
8	183.1846619	0	0	0	0	0.7977842093	1.0
9	183.1846619	0	0	0	0	0.8078487515	1.0
10	183.1846619	0	0	0	0	0.8129395247	1.0
11	183.1846619	0	0	0	0	0.8054697514	1.0
[LeftToeBaseEnd]
8	73.79586792	0	0	0	0	0	1.0
9	73.79586792	0	0	0	0	0	1.0
10	73.79586792	0	0	0	0	0	1.0
11	73.79586792	0	0	0	0	0	1.0
[EndOfFile]
